# xmcd
#
# Track frame offsets:
#	150
#	22098
#	43363
#	63956
#	85871
#	105562
#
# Disc length: 1581 seconds
#
# Revision: 1
# Processed by: cddbd v1.5.1PL0 Copyright (c) Steve Scherf et al.
# Submitted via: CDex 1.50Beta5
#
DISCID=4a062b06
DTITLE=ビューティフルハミングバード - ビューティフルハミングバード
DYEAR=2003
DGENRE=Pop
TTITLE0=青色の秘密
TTITLE1=シープ
TTITLE2=Ray
TTITLE3=ジプシー
TTITLE4=青葉
TTITLE5=柳の木
EXTD=
EXTT0=
EXTT1=
EXTT2=
EXTT3=
EXTT4=
EXTT5=
PLAYORDER=
